<?xml version="1.0" encoding="iso-8859-1"?>
<!-- Generator: Adobe Illustrator 18.0.0, SVG Export Plug-In . SVG Version: 6.00 Build 0)  -->
<!DOCTYPE svg PUBLIC "-//W3C//DTD SVG 1.1//EN" "http://www.w3.org/Graphics/SVG/1.1/DTD/svg11.dtd">
<svg version="1.1" id="Capa_1" xmlns="http://www.w3.org/2000/svg" xmlns:xlink="http://www.w3.org/1999/xlink" x="0px" y="0px"
	 viewBox="0 0 212.793 212.793" style="enable-background:new 0 0 212.793 212.793;" xml:space="preserve">
<path d="M145.105,24.897C111.91-8.299,58.09-8.299,24.896,24.896C-8.299,58.09-8.299,111.91,24.897,145.105
	c29.005,29.005,73.756,32.662,106.736,10.978l51.646,51.646c6.753,6.753,17.7,6.752,24.452,0c6.75-6.75,6.751-17.697-0.002-24.45
	l-51.646-51.646C177.767,98.653,174.109,53.902,145.105,24.897z M146.334,96.833l-10.701,0.001
	c-1.267,5.442-3.425,10.716-6.464,15.601l7.567,7.567l-16.734,16.734l-7.567-7.567c-4.885,3.039-10.158,5.197-15.601,6.464
	l-0.001,10.701H73.167l0.001-10.701c-5.444-1.267-10.718-3.425-15.603-6.464l-7.566,7.567l-16.735-16.734l7.567-7.567
	c-3.039-4.884-5.196-10.158-6.463-15.602H23.667V73.167h10.701c1.267-5.443,3.424-10.717,6.463-15.602l-7.567-7.566l16.735-16.735
	l7.566,7.567c4.885-3.039,10.158-5.196,15.602-6.463V23.667h23.666v10.701c5.443,1.267,10.718,3.424,15.602,6.463l7.567-7.567
	l16.734,16.735l-7.567,7.566c3.039,4.885,5.197,10.158,6.464,15.603l10.701-0.001V96.833z"/>
<g>
</g>
<g>
</g>
<g>
</g>
<g>
</g>
<g>
</g>
<g>
</g>
<g>
</g>
<g>
</g>
<g>
</g>
<g>
</g>
<g>
</g>
<g>
</g>
<g>
</g>
<g>
</g>
<g>
</g>
</svg>
