<?xml version="1.0" encoding="iso-8859-1"?>
<!-- Generator: Adobe Illustrator 19.0.0, SVG Export Plug-In . SVG Version: 6.00 Build 0)  -->
<svg version="1.1" id="Layer_1" xmlns="http://www.w3.org/2000/svg" xmlns:xlink="http://www.w3.org/1999/xlink" x="0px" y="0px"
	 viewBox="0 0 487.274 487.274" style="enable-background:new 0 0 487.274 487.274;" xml:space="preserve">
<g>
	<path d="M243.637,225.534c27.516,0,49.901-22.386,49.901-49.901s-22.386-49.901-49.901-49.901s-49.901,22.386-49.901,49.901
		S216.121,225.534,243.637,225.534z M243.637,155.731c10.974,0,19.901,8.928,19.901,19.901s-8.928,19.901-19.901,19.901
		s-19.901-8.928-19.901-19.901S232.663,155.731,243.637,155.731z"/>
	<path d="M243.637,253.703c-46.76,0-84.803,38.042-84.803,84.803v15H328.44v-15C328.44,291.746,290.397,253.703,243.637,253.703z
		 M190.921,323.506c6.54-22.949,27.697-39.803,52.716-39.803s46.176,16.854,52.716,39.803H190.921z"/>
	<path d="M466.191,84.853c-12.309,2.035-24.841,3.067-37.248,3.067c-64.868,0.002-126.841-27.241-174.504-76.708L243.637,0
		l-10.802,11.211C185.177,60.675,123.203,87.917,58.331,87.919c-12.402,0-24.934-1.031-37.248-3.067L2.926,81.851l0.723,18.39
		c2.836,72.218,16.806,137.371,41.52,193.648c19.922,45.366,46.815,85.071,79.932,118.013
		c56.756,56.457,111.922,73.396,114.243,74.089l4.294,1.283l4.294-1.283c2.321-0.693,57.486-17.632,114.243-74.089
		c33.116-32.942,60.009-72.647,79.932-118.013c24.714-56.277,38.683-121.43,41.52-193.648l0.723-18.39L466.191,84.853z
		 M342.198,389.452c-42.826,43.04-85.233,61.282-98.589,66.293c-13.202-4.909-54.673-22.658-97.352-65.112
		C100.093,344.712,44.234,260.387,34.57,116.817c7.918,0.733,15.863,1.103,23.762,1.103c36.661-0.001,72.595-7.721,106.803-22.945
		c28.766-12.802,55.114-30.36,78.502-52.29c23.39,21.934,49.736,39.49,78.501,52.292c34.208,15.225,70.142,22.943,106.805,22.942
		c7.899,0,15.842-0.37,23.758-1.103C445.018,230.348,406.99,324.337,342.198,389.452z"/>
</g>
<g>
</g>
<g>
</g>
<g>
</g>
<g>
</g>
<g>
</g>
<g>
</g>
<g>
</g>
<g>
</g>
<g>
</g>
<g>
</g>
<g>
</g>
<g>
</g>
<g>
</g>
<g>
</g>
<g>
</g>
</svg>
